Coordinates
version=1
nRows=17
nColumns=40
inDegrees=yes

Units are S.I. units (second, meters, Newtons, ...)
If the header above contains a line with 'inDegrees', this indicates whether rotational values are in degrees (yes) or radians (no).

endheader
time	pelvis_tilt	pelvis_list	pelvis_rotation	pelvis_tx	pelvis_ty	pelvis_tz	hip_flexion_r	hip_adduction_r	hip_rotation_r	knee_angle_r	knee_angle_r_beta	ankle_angle_r	subtalar_angle_r	mtp_angle_r	hip_flexion_l	hip_adduction_l	hip_rotation_l	knee_angle_l	knee_angle_l_beta	ankle_angle_l	subtalar_angle_l	mtp_angle_l	lumbar_extension	lumbar_bending	lumbar_rotation	arm_flex_r	arm_add_r	arm_rot_r	elbow_flex_r	pro_sup_r	wrist_flex_r	wrist_dev_r	arm_flex_l	arm_add_l	arm_rot_l	elbow_flex_l	pro_sup_l	wrist_flex_l	wrist_dev_l
      0.54000000	     12.91425887	     -5.11102265	     -4.60139376	     -0.59086701	      1.03730546	      0.25318813	    -27.96593065	      6.94695356	      2.66509981	      6.74211517	      0.11767211	     11.13764527	      0.00000000	      0.00000000	      9.95212964	     -7.66618207	     -8.58863056	      2.28489371	      0.03987892	     -3.04167778	      0.00000000	      0.00000000	    -31.15842269	     -1.76579755	      8.54399842	      2.76799752	     -3.97448264	     -9.81364313	     62.69809193	     89.23303227	      0.53310953	     12.94739646	    -11.14804381	      1.80171513	    -12.37560121	     23.98619098	     89.43049830	    -17.00490283	      0.40959414
      0.55000000	     12.97236340	     -4.86775107	     -5.20537372	     -0.57665098	      1.03617147	      0.25332721	    -28.43457935	      6.25764935	      3.05899438	      7.62972010	      0.13316374	     11.46059004	      0.00000000	      0.00000000	      9.78689934	     -7.29124393	     -9.11300934	      2.46388358	      0.04300288	     -3.16582545	      0.00000000	      0.00000000	    -31.11027413	     -2.35168690	      9.30478222	      2.27331882	     -3.98531175	    -10.46938429	     63.31246804	     89.23992083	     -0.01299926	     12.09357735	    -11.15180513	      1.66606551	    -12.11228894	     23.45067877	     89.43676377	    -15.90526590	      1.42002788
      0.56000000	     12.92638590	     -4.78284578	     -5.44644582	     -0.56244287	      1.03500166	      0.25305288	    -28.74083050	      5.89377281	      3.19355216	      8.59210763	      0.14996057	     11.32022450	      0.00000000	      0.00000000	      9.85245872	     -7.07069490	     -9.05143416	      3.06546045	      0.05350238	     -3.21008927	      0.00000000	      0.00000000	    -30.97316114	     -2.60251583	      9.42315082	      2.09585578	     -3.92660142	    -10.75312216	     63.58202640	     89.24101180	     -0.24493187	     11.79984179	    -11.28400423	      1.56980458	    -11.99998505	     22.94916872	     89.43501923	    -15.51376021	      1.83581755
      0.57000000	     12.87501913	     -4.65438506	     -5.62815793	     -0.54795714	      1.03405275	      0.25268073	    -29.03409170	      5.51822350	      3.48643013	      9.54199349	      0.16653920	     10.88725737	      0.00000000	      0.00000000	      9.88478119	     -6.80322214	     -8.81891070	      3.85299183	      0.06724739	     -3.46701511	      0.00000000	      0.00000000	    -30.81751678	     -2.88693073	      9.35932435	      1.95327679	     -3.81462667	    -10.95479145	     63.63805310	     89.24312740	     -0.31789106	     11.70568242	    -11.49449437	      1.49248360	    -12.00895576	     22.61615048	     89.44358779	    -15.44120178	      1.95358051
      0.58000000	     12.76881394	     -4.37144132	     -5.98112933	     -0.53310808	      1.03325378	      0.25253039	    -29.11761660	      4.90651836	      3.41410610	     10.80642541	      0.18860770	     10.58512208	      0.00000000	      0.00000000	      9.97470079	     -6.42789500	     -9.31646931	      4.95721969	      0.08651981	     -3.83193685	      0.00000000	      0.00000000	    -30.55864659	     -3.37942010	      9.55968460	      1.55868458	     -3.63027466	    -11.42428342	     63.77868950	     89.24338986	     -0.52239261	     11.31321919	    -11.55177632	      1.34666816	    -11.83263757	     22.18574196	     89.43112865	    -15.16225410	      2.24800954
      0.59000000	     12.72156394	     -4.01199475	     -6.37430107	     -0.51802366	      1.03287498	      0.25242151	    -29.21896364	      4.19575460	      3.54474242	     12.10084260	      0.21119955	      9.89145683	      0.00000000	      0.00000000	      9.88663061	     -5.97634720	     -9.60403615	      6.02522741	      0.10516006	     -4.41536496	      0.00000000	      0.00000000	    -30.32138516	     -3.94999812	      9.89533339	      1.01486798	     -3.41436609	    -12.03835438	     63.89292955	     89.24433049	     -0.82294691	     10.75958942	    -11.49170091	      1.11899277	    -11.41402939	     21.76912933	     89.43328813	    -14.80530697	      2.61692216
      0.60000000	     12.69032886	     -3.77065343	     -6.58904125	     -0.50284432	      1.03277330	      0.25217407	    -29.25158800	      3.69674976	      3.58483897	     13.54252887	      0.23636172	      8.84249549	      0.00000000	      0.00000000	      9.77550676	     -5.63616786	     -9.59904289	      7.16477466	      0.12504891	     -5.02507225	      0.00000000	      0.00000000	    -30.14508620	     -4.35614494	      9.90071061	      0.63296584	     -3.15129649	    -12.43371809	     63.76099590	     89.24316343	     -0.98543585	     10.55709550	    -11.52403497	      0.94431934	    -11.25514613	     21.51488419	     89.43208703	    -14.70188367	      2.76136266
      0.61000000	     12.74576111	     -3.33531256	     -7.00330603	     -0.48725637	      1.03319283	      0.25218006	    -29.24712546	      2.89849753	      3.56842271	     15.17085796	      0.26478142	      7.59495343	      0.00000000	      0.00000000	      9.43212120	     -5.11046615	     -9.89699155	      8.18653319	      0.14288196	     -5.81293257	      0.00000000	      0.00000000	    -29.99194406	     -5.03182352	     10.47188097	     -0.20175403	     -2.84516109	    -13.26810052	     63.81539166	     89.23804699	     -1.64913828	      9.56997885	    -11.19450948	      0.59493356	    -10.32695190	     20.99265616	     89.42706219	    -14.34877158	      3.28335065
      0.62000000	     12.87189397	     -3.02712786	     -7.16530422	     -0.47175799	      1.03392202	      0.25188000	    -29.17853813	      2.32808614	      3.24911154	     17.00451933	      0.29678485	      5.88061981	      0.00000000	      0.00000000	      9.04339071	     -4.68358433	     -9.86357082	      9.26368907	      0.16168188	     -6.43802350	      0.00000000	      0.00000000	    -29.96065077	     -5.49166787	     10.31650408	     -0.57654769	     -2.50365306	    -13.59502668	     63.46833744	     89.23170901	     -1.78495404	      9.51710703	    -11.19923183	      0.40546348	    -10.28747438	     20.93090820	     89.42719894	    -14.36861280	      3.30368295
      0.63000000	     13.08955998	     -2.63743942	     -7.35737484	     -0.45618684	      1.03512103	      0.25163338	    -29.02926628	      1.64457587	      2.83040299	     19.07841977	      0.33298124	      3.85307997	      0.00000000	      0.00000000	      8.47272620	     -4.15762236	     -9.85014131	     10.20788149	      0.17816114	     -7.04386666	      0.00000000	      0.00000000	    -30.01852192	     -6.04996792	     10.13243262	     -0.96379815	     -2.12579037	    -13.91860065	     63.02674494	     89.22503840	     -1.92349180	      9.39833380	    -11.15564068	      0.19450751	    -10.22155729	     20.93186144	     89.42859907	    -14.41126195	      3.33832250
      0.64000000	     13.42610842	     -2.07986662	     -7.59651998	     -0.44053612	      1.03681002	      0.25146060	    -28.81126504	      0.74748648	      2.32408760	     21.38936916	      0.37331492	      1.58721989	      0.00000000	      0.00000000	      7.68060255	     -3.42570342	     -9.84896957	     10.95634931	      0.19122437	     -7.66132476	      0.00000000	      0.00000000	    -30.19715212	     -6.81783389	      9.85297883	     -1.31481090	     -1.68692648	    -14.20610977	     62.40700814	     89.21889810	     -2.19259692	      9.01608141	    -11.08189583	     -0.05350891	    -10.14520980	     21.03036257	     89.43012073	    -14.56306694	      3.43662962
      0.65000000	     13.66032737	     -1.78289741	     -7.72035998	     -0.42512145	      1.03860985	      0.25106289	    -28.28559839	      0.16418726	      1.88787356	     23.98120595	      0.41855100	     -1.05128653	      0.00000000	      0.00000000	      6.99467267	     -2.97931108	     -9.78648448	     11.74739706	      0.20503076	     -7.79978376	      0.00000000	      0.00000000	    -30.31999656	     -7.25632729	      9.62761995	     -1.68462622	     -1.33060009	    -14.42157125	     61.76918022	     89.21091606	     -2.32489740	      8.99161511	    -10.93148192	     -0.25742692	    -10.13835581	     21.18622200	     89.43105027	    -14.60963013	      3.43996517
      0.66000000	     13.85003339	     -1.32793214	     -7.88407348	     -0.40975119	      1.04055805	      0.25065318	    -27.48240336	     -0.61596447	      1.38239165	     26.82735046	      0.46822560	     -3.90890344	      0.00000000	      0.00000000	      6.31526404	     -2.36401226	     -9.73668976	     12.42460197	      0.21685021	     -7.87871300	      0.00000000	      0.00000000	    -30.36927301	     -7.83993109	      9.27796495	     -1.98938390	     -0.91291622	    -14.63850962	     60.92758592	     89.20386472	     -2.50515096	      8.91742014	    -10.76788404	     -0.47105367	    -10.18720612	     21.41514845	     89.43443698	    -14.70547254	      3.47810478
      0.67000000	     14.19537190	     -1.09719875	     -7.99880161	     -0.39511608	      1.04293705	      0.25014820	    -26.64410383	     -1.13622413	      1.24046443	     29.89762916	      0.52181207	     -6.41031170	      0.00000000	      0.00000000	      5.41778683	     -1.94375917	     -9.39999019	     13.00380655	      0.22695924	     -7.60350184	      0.00000000	      0.00000000	    -30.72156457	     -8.18623373	      8.95053284	     -2.17027429	     -0.49463401	    -14.96015232	     60.09707809	     89.19703441	     -2.62786423	      8.96902593	    -10.43562268	     -0.65933702	    -10.12381234	     21.62966345	     89.44501138	    -14.71721558	      3.47561472
      0.68000000	     13.84060516	     -0.45300111	     -8.23030721	     -0.37995416	      1.04419929	      0.24970203	    -24.77069779	     -2.06645948	      0.96087652	     33.29089815	      0.58103578	     -9.38060868	      0.00000000	      0.00000000	      5.30072942	     -1.20685941	     -9.61877490	     13.58757688	      0.23714795	     -7.26414244	      0.00000000	      0.00000000	    -30.11825396	     -8.93235515	      8.19534121	     -2.18045278	     -0.19819325	    -14.33765249	     58.53764328	     89.19318936	     -3.07337840	      8.50113496	    -10.57439364	     -0.80341298	    -10.91817851	     22.41561798	     89.44374771	    -14.94214873	      3.64557625
      0.69000000	     13.89180401	     -0.07981444	     -8.33188512	     -0.36542581	      1.04626574	      0.24890394	    -23.27537594	     -2.67686320	      1.00976223	     36.56426848	      0.63816687	    -12.17567889	      0.00000000	      0.00000000	      4.64365452	     -0.64654641	     -9.49965982	     13.97580563	      0.24392382	     -6.68239143	      0.00000000	      0.00000000	    -30.14629235	     -9.33922169	      7.84664519	     -2.45191262	      0.10548032	    -14.43246574	     57.65404313	     89.20093590	     -3.19113316	      8.68523235	    -10.19502259	     -1.00673964	    -10.86977658	     22.84207438	     89.44715483	    -14.89778001	      3.62704573
      0.70000000	     13.47909497	      0.34495641	     -8.62295823	     -0.35136917	      1.04755127	      0.24842218	    -21.01630203	     -3.27653189	      1.47574712	     40.15263859	      0.70079575	    -14.04808189	      0.00000000	      0.00000000	      4.51706590	     -0.14395971	     -9.70643770	     14.41151680	      0.25152842	     -5.96798853	      0.00000000	      0.00000000	    -29.58125107	     -9.83821070	      7.47200302	     -2.45343503	      0.37861952	    -14.24941120	     56.19756448	     89.19735715	     -3.29612326	      9.00466971	     -9.89589584	     -1.18695642	    -11.15077194	     23.34749537	     89.45297762	    -14.82853649	      3.71107609
